<svg width="64" height="17" viewBox="0 0 64 17" fill="none" xmlns="http://www.w3.org/2000/svg">
<path d="M4.939 12L3.388 9.327H2.233V12H0.715V4.3H3.795C4.50633 4.3 5.11133 4.54933 5.61 5.048C6.10867 5.54667 6.358 6.148 6.358 6.852C6.358 7.32867 6.22233 7.77233 5.951 8.183C5.67967 8.58633 5.32033 8.89067 4.873 9.096L6.578 12H4.939ZM2.233 5.719V7.996H3.795C4.081 7.996 4.32667 7.886 4.532 7.666C4.73733 7.43867 4.84 7.16733 4.84 6.852C4.84 6.53667 4.73733 6.269 4.532 6.049C4.32667 5.829 4.081 5.719 3.795 5.719H2.233ZM8.32554 9.833C8.51621 10.5223 9.03321 10.867 9.87654 10.867C10.4192 10.867 10.8299 10.6837 11.1085 10.317L12.2525 10.977C11.7099 11.7617 10.9105 12.154 9.85454 12.154C8.94521 12.154 8.21554 11.879 7.66554 11.329C7.11554 10.779 6.84054 10.086 6.84054 9.25C6.84054 8.42133 7.11187 7.732 7.65454 7.182C8.19721 6.62467 8.89387 6.346 9.74454 6.346C10.5512 6.346 11.2149 6.62467 11.7355 7.182C12.2635 7.73933 12.5275 8.42867 12.5275 9.25C12.5275 9.43333 12.5092 9.62767 12.4725 9.833H8.32554ZM8.30354 8.733H11.1085C11.0279 8.359 10.8592 8.08033 10.6025 7.897C10.3532 7.71367 10.0672 7.622 9.74454 7.622C9.36321 7.622 9.04787 7.721 8.79854 7.919C8.54921 8.10967 8.38421 8.381 8.30354 8.733ZM17.6552 6.5H19.0742V12H17.6552V11.351C17.2298 11.8863 16.6322 12.154 15.8622 12.154C15.1288 12.154 14.4982 11.8753 13.9702 11.318C13.4495 10.7533 13.1892 10.064 13.1892 9.25C13.1892 8.436 13.4495 7.75033 13.9702 7.193C14.4982 6.62833 15.1288 6.346 15.8622 6.346C16.6322 6.346 17.2298 6.61367 17.6552 7.149V6.5ZM15.0372 10.372C15.3232 10.658 15.6862 10.801 16.1262 10.801C16.5662 10.801 16.9292 10.658 17.2152 10.372C17.5085 10.0787 17.6552 9.70467 17.6552 9.25C17.6552 8.79533 17.5085 8.425 17.2152 8.139C16.9292 7.84567 16.5662 7.699 16.1262 7.699C15.6862 7.699 15.3232 7.84567 15.0372 8.139C14.7512 8.425 14.6082 8.79533 14.6082 9.25C14.6082 9.70467 14.7512 10.0787 15.0372 10.372ZM24.5299 4.3H25.9489V12H24.5299V11.351C24.1119 11.8863 23.5179 12.154 22.7479 12.154C22.0072 12.154 21.3729 11.8753 20.8449 11.318C20.3242 10.7533 20.0639 10.064 20.0639 9.25C20.0639 8.436 20.3242 7.75033 20.8449 7.193C21.3729 6.62833 22.0072 6.346 22.7479 6.346C23.5179 6.346 24.1119 6.61367 24.5299 7.149V4.3ZM21.9119 10.372C22.2052 10.658 22.5719 10.801 23.0119 10.801C23.4519 10.801 23.8149 10.658 24.1009 10.372C24.3869 10.0787 24.5299 9.70467 24.5299 9.25C24.5299 8.79533 24.3869 8.425 24.1009 8.139C23.8149 7.84567 23.4519 7.699 23.0119 7.699C22.5719 7.699 22.2052 7.84567 21.9119 8.139C21.6259 8.425 21.4829 8.79533 21.4829 9.25C21.4829 9.70467 21.6259 10.0787 21.9119 10.372ZM37.5977 4.3V12H36.0907V7.006L33.9237 10.581H33.7477L31.5807 7.017V12H30.0627V4.3H31.6247L33.8357 7.941L36.0357 4.3H37.5977ZM43.6524 11.318C43.0877 11.8753 42.3984 12.154 41.5844 12.154C40.7704 12.154 40.081 11.8753 39.5164 11.318C38.959 10.7533 38.6804 10.064 38.6804 9.25C38.6804 8.436 38.959 7.75033 39.5164 7.193C40.081 6.62833 40.7704 6.346 41.5844 6.346C42.3984 6.346 43.0877 6.62833 43.6524 7.193C44.217 7.75033 44.4994 8.436 44.4994 9.25C44.4994 10.064 44.217 10.7533 43.6524 11.318ZM40.5174 10.339C40.8034 10.625 41.159 10.768 41.5844 10.768C42.0097 10.768 42.3654 10.625 42.6514 10.339C42.9374 10.053 43.0804 9.69 43.0804 9.25C43.0804 8.81 42.9374 8.447 42.6514 8.161C42.3654 7.875 42.0097 7.732 41.5844 7.732C41.159 7.732 40.8034 7.875 40.5174 8.161C40.2387 8.447 40.0994 8.81 40.0994 9.25C40.0994 9.69 40.2387 10.053 40.5174 10.339ZM46.9166 7.446C47.0486 7.094 47.265 6.83 47.5656 6.654C47.8736 6.478 48.2146 6.39 48.5886 6.39V7.974C48.156 7.92267 47.7673 8.01067 47.4226 8.238C47.0853 8.46533 46.9166 8.843 46.9166 9.371V12H45.4976V6.5H46.9166V7.446ZM50.4134 9.833C50.6041 10.5223 51.1211 10.867 51.9644 10.867C52.5071 10.867 52.9178 10.6837 53.1964 10.317L54.3404 10.977C53.7978 11.7617 52.9984 12.154 51.9424 12.154C51.0331 12.154 50.3034 11.879 49.7534 11.329C49.2034 10.779 48.9284 10.086 48.9284 9.25C48.9284 8.42133 49.1998 7.732 49.7424 7.182C50.2851 6.62467 50.9818 6.346 51.8324 6.346C52.6391 6.346 53.3028 6.62467 53.8234 7.182C54.3514 7.73933 54.6154 8.42867 54.6154 9.25C54.6154 9.43333 54.5971 9.62767 54.5604 9.833H50.4134ZM50.3914 8.733H53.1964C53.1158 8.359 52.9471 8.08033 52.6904 7.897C52.4411 7.71367 52.1551 7.622 51.8324 7.622C51.4511 7.622 51.1358 7.721 50.8864 7.919C50.6371 8.10967 50.4721 8.381 50.3914 8.733ZM56.6506 11.868C56.4673 12.0513 56.2473 12.143 55.9906 12.143C55.7339 12.143 55.5139 12.0513 55.3306 11.868C55.1473 11.6847 55.0556 11.4647 55.0556 11.208C55.0556 10.9513 55.1473 10.7313 55.3306 10.548C55.5139 10.3647 55.7339 10.273 55.9906 10.273C56.2473 10.273 56.4673 10.3647 56.6506 10.548C56.8339 10.7313 56.9256 10.9513 56.9256 11.208C56.9256 11.4647 56.8339 11.6847 56.6506 11.868ZM59.594 11.868C59.4106 12.0513 59.1906 12.143 58.934 12.143C58.6773 12.143 58.4573 12.0513 58.274 11.868C58.0906 11.6847 57.999 11.4647 57.999 11.208C57.999 10.9513 58.0906 10.7313 58.274 10.548C58.4573 10.3647 58.6773 10.273 58.934 10.273C59.1906 10.273 59.4106 10.3647 59.594 10.548C59.7773 10.7313 59.869 10.9513 59.869 11.208C59.869 11.4647 59.7773 11.6847 59.594 11.868ZM62.5373 11.868C62.354 12.0513 62.134 12.143 61.8773 12.143C61.6207 12.143 61.4007 12.0513 61.2173 11.868C61.034 11.6847 60.9423 11.4647 60.9423 11.208C60.9423 10.9513 61.034 10.7313 61.2173 10.548C61.4007 10.3647 61.6207 10.273 61.8773 10.273C62.134 10.273 62.354 10.3647 62.5373 10.548C62.7207 10.7313 62.8123 10.9513 62.8123 11.208C62.8123 11.4647 62.7207 11.6847 62.5373 11.868Z" fill="black"/>
</svg>
